<?xml version='1.0' encoding='utf-8'?>
<svg xmlns:xlink="http://www.w3.org/1999/xlink" xmlns="http://www.w3.org/2000/svg" id="chart-e3927d8b-e10f-4a7c-b44e-23f1db49f3d8" class="pygal-chart" viewBox="0 0 800 600"><!--Generated with pygal 2.4.0 (lxml) ©Kozea 2012-2016 on 2017-12-11--><!--http://pygal.org--><!--http://github.com/Kozea/pygal--><defs><style type="text/css">#chart-e3927d8b-e10f-4a7c-b44e-23f1db49f3d8{-webkit-user-select:none;-webkit-font-smoothing:antialiased;font-family:Consolas,"Liberation Mono",Menlo,Courier,monospace}#chart-e3927d8b-e10f-4a7c-b44e-23f1db49f3d8 .title{font-family:Consolas,"Liberation Mono",Menlo,Courier,monospace;font-size:16px}#chart-e3927d8b-e10f-4a7c-b44e-23f1db49f3d8 .legends .legend text{font-family:Consolas,"Liberation Mono",Menlo,Courier,monospace;font-size:14px}#chart-e3927d8b-e10f-4a7c-b44e-23f1db49f3d8 .axis text{font-family:Consolas,"Liberation Mono",Menlo,Courier,monospace;font-size:10px}#chart-e3927d8b-e10f-4a7c-b44e-23f1db49f3d8 .axis text.major{font-family:Consolas,"Liberation Mono",Menlo,Courier,monospace;font-size:10px}#chart-e3927d8b-e10f-4a7c-b44e-23f1db49f3d8 .text-overlay text.value{font-family:Consolas,"Liberation Mono",Menlo,Courier,monospace;font-size:16px}#chart-e3927d8b-e10f-4a7c-b44e-23f1db49f3d8 .text-overlay text.label{font-family:Consolas,"Liberation Mono",Menlo,Courier,monospace;font-size:10px}#chart-e3927d8b-e10f-4a7c-b44e-23f1db49f3d8 .tooltip{font-family:Consolas,"Liberation Mono",Menlo,Courier,monospace;font-size:14px}#chart-e3927d8b-e10f-4a7c-b44e-23f1db49f3d8 text.no_data{font-family:Consolas,"Liberation Mono",Menlo,Courier,monospace;font-size:64px}
#chart-e3927d8b-e10f-4a7c-b44e-23f1db49f3d8{background-color:rgba(249,249,249,1)}#chart-e3927d8b-e10f-4a7c-b44e-23f1db49f3d8 path,#chart-e3927d8b-e10f-4a7c-b44e-23f1db49f3d8 line,#chart-e3927d8b-e10f-4a7c-b44e-23f1db49f3d8 rect,#chart-e3927d8b-e10f-4a7c-b44e-23f1db49f3d8 circle{-webkit-transition:150ms;-moz-transition:150ms;transition:150ms}#chart-e3927d8b-e10f-4a7c-b44e-23f1db49f3d8 .graph &gt; .background{fill:rgba(249,249,249,1)}#chart-e3927d8b-e10f-4a7c-b44e-23f1db49f3d8 .plot &gt; .background{fill:rgba(255,255,255,1)}#chart-e3927d8b-e10f-4a7c-b44e-23f1db49f3d8 .graph{fill:rgba(0,0,0,.87)}#chart-e3927d8b-e10f-4a7c-b44e-23f1db49f3d8 text.no_data{fill:rgba(0,0,0,1)}#chart-e3927d8b-e10f-4a7c-b44e-23f1db49f3d8 .title{fill:rgba(0,0,0,1)}#chart-e3927d8b-e10f-4a7c-b44e-23f1db49f3d8 .legends .legend text{fill:rgba(0,0,0,.87)}#chart-e3927d8b-e10f-4a7c-b44e-23f1db49f3d8 .legends .legend:hover text{fill:rgba(0,0,0,1)}#chart-e3927d8b-e10f-4a7c-b44e-23f1db49f3d8 .axis .line{stroke:rgba(0,0,0,1)}#chart-e3927d8b-e10f-4a7c-b44e-23f1db49f3d8 .axis .guide.line{stroke:rgba(0,0,0,.54)}#chart-e3927d8b-e10f-4a7c-b44e-23f1db49f3d8 .axis .major.line{stroke:rgba(0,0,0,.87)}#chart-e3927d8b-e10f-4a7c-b44e-23f1db49f3d8 .axis text.major{fill:rgba(0,0,0,1)}#chart-e3927d8b-e10f-4a7c-b44e-23f1db49f3d8 .axis.y .guides:hover .guide.line,#chart-e3927d8b-e10f-4a7c-b44e-23f1db49f3d8 .line-graph .axis.x .guides:hover .guide.line,#chart-e3927d8b-e10f-4a7c-b44e-23f1db49f3d8 .stackedline-graph .axis.x .guides:hover .guide.line,#chart-e3927d8b-e10f-4a7c-b44e-23f1db49f3d8 .xy-graph .axis.x .guides:hover .guide.line{stroke:rgba(0,0,0,1)}#chart-e3927d8b-e10f-4a7c-b44e-23f1db49f3d8 .axis .guides:hover text{fill:rgba(0,0,0,1)}#chart-e3927d8b-e10f-4a7c-b44e-23f1db49f3d8 .reactive{fill-opacity:.7;stroke-opacity:.8}#chart-e3927d8b-e10f-4a7c-b44e-23f1db49f3d8 .ci{stroke:rgba(0,0,0,.87)}#chart-e3927d8b-e10f-4a7c-b44e-23f1db49f3d8 .reactive.active,#chart-e3927d8b-e10f-4a7c-b44e-23f1db49f3d8 .active .reactive{fill-opacity:.8;stroke-opacity:.9;stroke-width:4}#chart-e3927d8b-e10f-4a7c-b44e-23f1db49f3d8 .ci .reactive.active{stroke-width:1.5}#chart-e3927d8b-e10f-4a7c-b44e-23f1db49f3d8 .series text{fill:rgba(0,0,0,1)}#chart-e3927d8b-e10f-4a7c-b44e-23f1db49f3d8 .tooltip rect{fill:rgba(255,255,255,1);stroke:rgba(0,0,0,1);-webkit-transition:opacity 150ms;-moz-transition:opacity 150ms;transition:opacity 150ms}#chart-e3927d8b-e10f-4a7c-b44e-23f1db49f3d8 .tooltip .label{fill:rgba(0,0,0,.87)}#chart-e3927d8b-e10f-4a7c-b44e-23f1db49f3d8 .tooltip .label{fill:rgba(0,0,0,.87)}#chart-e3927d8b-e10f-4a7c-b44e-23f1db49f3d8 .tooltip .legend{font-size:.8em;fill:rgba(0,0,0,.54)}#chart-e3927d8b-e10f-4a7c-b44e-23f1db49f3d8 .tooltip .x_label{font-size:.6em;fill:rgba(0,0,0,1)}#chart-e3927d8b-e10f-4a7c-b44e-23f1db49f3d8 .tooltip .xlink{font-size:.5em;text-decoration:underline}#chart-e3927d8b-e10f-4a7c-b44e-23f1db49f3d8 .tooltip .value{font-size:1.5em}#chart-e3927d8b-e10f-4a7c-b44e-23f1db49f3d8 .bound{font-size:.5em}#chart-e3927d8b-e10f-4a7c-b44e-23f1db49f3d8 .max-value{font-size:.75em;fill:rgba(0,0,0,.54)}#chart-e3927d8b-e10f-4a7c-b44e-23f1db49f3d8 .map-element{fill:rgba(255,255,255,1);stroke:rgba(0,0,0,.54) !important}#chart-e3927d8b-e10f-4a7c-b44e-23f1db49f3d8 .map-element .reactive{fill-opacity:inherit;stroke-opacity:inherit}#chart-e3927d8b-e10f-4a7c-b44e-23f1db49f3d8 .color-0,#chart-e3927d8b-e10f-4a7c-b44e-23f1db49f3d8 .color-0 a:visited{stroke:#F44336;fill:#F44336}#chart-e3927d8b-e10f-4a7c-b44e-23f1db49f3d8 .text-overlay .color-0 text{fill:black}
#chart-e3927d8b-e10f-4a7c-b44e-23f1db49f3d8 text.no_data{text-anchor:middle}#chart-e3927d8b-e10f-4a7c-b44e-23f1db49f3d8 .guide.line{fill:none}#chart-e3927d8b-e10f-4a7c-b44e-23f1db49f3d8 .centered{text-anchor:middle}#chart-e3927d8b-e10f-4a7c-b44e-23f1db49f3d8 .title{text-anchor:middle}#chart-e3927d8b-e10f-4a7c-b44e-23f1db49f3d8 .legends .legend text{fill-opacity:1}#chart-e3927d8b-e10f-4a7c-b44e-23f1db49f3d8 .axis.x text{text-anchor:middle}#chart-e3927d8b-e10f-4a7c-b44e-23f1db49f3d8 .axis.x:not(.web) text[transform]{text-anchor:start}#chart-e3927d8b-e10f-4a7c-b44e-23f1db49f3d8 .axis.x:not(.web) text[transform].backwards{text-anchor:end}#chart-e3927d8b-e10f-4a7c-b44e-23f1db49f3d8 .axis.y text{text-anchor:end}#chart-e3927d8b-e10f-4a7c-b44e-23f1db49f3d8 .axis.y text[transform].backwards{text-anchor:start}#chart-e3927d8b-e10f-4a7c-b44e-23f1db49f3d8 .axis.y2 text{text-anchor:start}#chart-e3927d8b-e10f-4a7c-b44e-23f1db49f3d8 .axis.y2 text[transform].backwards{text-anchor:end}#chart-e3927d8b-e10f-4a7c-b44e-23f1db49f3d8 .axis .guide.line{stroke-dasharray:4,4}#chart-e3927d8b-e10f-4a7c-b44e-23f1db49f3d8 .axis .major.guide.line{stroke-dasharray:6,6}#chart-e3927d8b-e10f-4a7c-b44e-23f1db49f3d8 .horizontal .axis.y .guide.line,#chart-e3927d8b-e10f-4a7c-b44e-23f1db49f3d8 .horizontal .axis.y2 .guide.line,#chart-e3927d8b-e10f-4a7c-b44e-23f1db49f3d8 .vertical .axis.x .guide.line{opacity:0}#chart-e3927d8b-e10f-4a7c-b44e-23f1db49f3d8 .horizontal .axis.always_show .guide.line,#chart-e3927d8b-e10f-4a7c-b44e-23f1db49f3d8 .vertical .axis.always_show .guide.line{opacity:1 !important}#chart-e3927d8b-e10f-4a7c-b44e-23f1db49f3d8 .axis.y .guides:hover .guide.line,#chart-e3927d8b-e10f-4a7c-b44e-23f1db49f3d8 .axis.y2 .guides:hover .guide.line,#chart-e3927d8b-e10f-4a7c-b44e-23f1db49f3d8 .axis.x .guides:hover .guide.line{opacity:1}#chart-e3927d8b-e10f-4a7c-b44e-23f1db49f3d8 .axis .guides:hover text{opacity:1}#chart-e3927d8b-e10f-4a7c-b44e-23f1db49f3d8 .nofill{fill:none}#chart-e3927d8b-e10f-4a7c-b44e-23f1db49f3d8 .subtle-fill{fill-opacity:.2}#chart-e3927d8b-e10f-4a7c-b44e-23f1db49f3d8 .dot{stroke-width:1px;fill-opacity:1}#chart-e3927d8b-e10f-4a7c-b44e-23f1db49f3d8 .dot.active{stroke-width:5px}#chart-e3927d8b-e10f-4a7c-b44e-23f1db49f3d8 .dot.negative{fill:transparent}#chart-e3927d8b-e10f-4a7c-b44e-23f1db49f3d8 text,#chart-e3927d8b-e10f-4a7c-b44e-23f1db49f3d8 tspan{stroke:none !important}#chart-e3927d8b-e10f-4a7c-b44e-23f1db49f3d8 .series text.active{opacity:1}#chart-e3927d8b-e10f-4a7c-b44e-23f1db49f3d8 .tooltip rect{fill-opacity:.95;stroke-width:.5}#chart-e3927d8b-e10f-4a7c-b44e-23f1db49f3d8 .tooltip text{fill-opacity:1}#chart-e3927d8b-e10f-4a7c-b44e-23f1db49f3d8 .showable{visibility:hidden}#chart-e3927d8b-e10f-4a7c-b44e-23f1db49f3d8 .showable.shown{visibility:visible}#chart-e3927d8b-e10f-4a7c-b44e-23f1db49f3d8 .gauge-background{fill:rgba(229,229,229,1);stroke:none}#chart-e3927d8b-e10f-4a7c-b44e-23f1db49f3d8 .bg-lines{stroke:rgba(249,249,249,1);stroke-width:2px}</style><script type="text/javascript">window.pygal = window.pygal || {};window.pygal.config = window.pygal.config || {};window.pygal.config['e3927d8b-e10f-4a7c-b44e-23f1db49f3d8'] = {"allow_interruptions": false, "box_mode": "extremes", "classes": ["pygal-chart"], "css": ["file://style.css", "file://graph.css"], "defs": [], "disable_xml_declaration": false, "dots_size": 2.5, "dynamic_print_values": false, "explicit_size": false, "fill": true, "force_uri_protocol": "https", "formatter": null, "half_pie": false, "height": 600, "include_x_axis": false, "inner_radius": 0, "interpolate": "cubic", "interpolation_parameters": {}, "interpolation_precision": 250, "inverse_y_axis": false, "js": ["//kozea.github.io/pygal.js/2.0.x/pygal-tooltips.min.js"], "legend_at_bottom": false, "legend_at_bottom_columns": null, "legend_box_size": 12, "logarithmic": false, "margin": 20, "margin_bottom": null, "margin_left": null, "margin_right": null, "margin_top": null, "max_scale": 16, "min_scale": 4, "missing_value_fill_truncation": "x", "no_data_text": "No data", "no_prefix": false, "order_min": null, "pretty_print": false, "print_labels": false, "print_values": false, "print_values_position": "center", "print_zeroes": true, "range": null, "rounded_bars": null, "secondary_range": null, "show_dots": true, "show_legend": true, "show_minor_x_labels": true, "show_minor_y_labels": true, "show_only_major_dots": false, "show_x_guides": false, "show_x_labels": true, "show_y_guides": true, "show_y_labels": true, "spacing": 10, "stack_from_top": false, "strict": false, "stroke": true, "stroke_style": null, "style": {"background": "rgba(249, 249, 249, 1)", "ci_colors": [], "colors": ["#F44336", "#3F51B5", "#009688", "#FFC107", "#FF5722", "#9C27B0", "#03A9F4", "#8BC34A", "#FF9800", "#E91E63", "#2196F3", "#4CAF50", "#FFEB3B", "#673AB7", "#00BCD4", "#CDDC39", "#9E9E9E", "#607D8B"], "font_family": "Consolas, \"Liberation Mono\", Menlo, Courier, monospace", "foreground": "rgba(0, 0, 0, .87)", "foreground_strong": "rgba(0, 0, 0, 1)", "foreground_subtle": "rgba(0, 0, 0, .54)", "guide_stroke_dasharray": "4,4", "label_font_family": "Consolas, \"Liberation Mono\", Menlo, Courier, monospace", "label_font_size": 10, "legend_font_family": "Consolas, \"Liberation Mono\", Menlo, Courier, monospace", "legend_font_size": 14, "major_guide_stroke_dasharray": "6,6", "major_label_font_family": "Consolas, \"Liberation Mono\", Menlo, Courier, monospace", "major_label_font_size": 10, "no_data_font_family": "Consolas, \"Liberation Mono\", Menlo, Courier, monospace", "no_data_font_size": 64, "opacity": ".7", "opacity_hover": ".8", "plot_background": "rgba(255, 255, 255, 1)", "stroke_opacity": ".8", "stroke_opacity_hover": ".9", "title_font_family": "Consolas, \"Liberation Mono\", Menlo, Courier, monospace", "title_font_size": 16, "tooltip_font_family": "Consolas, \"Liberation Mono\", Menlo, Courier, monospace", "tooltip_font_size": 14, "transition": "150ms", "value_background": "rgba(229, 229, 229, 1)", "value_colors": [], "value_font_family": "Consolas, \"Liberation Mono\", Menlo, Courier, monospace", "value_font_size": 16, "value_label_font_family": "Consolas, \"Liberation Mono\", Menlo, Courier, monospace", "value_label_font_size": 10}, "title": "\u0e2a\u0e16\u0e34\u0e15\u0e34\u0e19\u0e31\u0e01\u0e17\u0e48\u0e2d\u0e07\u0e40\u0e17\u0e35\u0e48\u0e22\u0e27\u0e0a\u0e32\u0e27\u0e15\u0e48\u0e32\u0e07\u0e0a\u0e32\u0e15\u0e34\u0e17\u0e35\u0e48\u0e40\u0e14\u0e34\u0e19\u0e17\u0e32\u0e07\u0e40\u0e02\u0e49\u0e32\u0e1b\u0e23\u0e30\u0e40\u0e17\u0e28\u0e44\u0e17\u0e22\u0e43\u0e19\u0e1b\u0e35 \u0e1e.\u0e28. 2550 \u2013 2559", "tooltip_border_radius": 0, "tooltip_fancy_mode": true, "truncate_label": null, "truncate_legend": null, "width": 800, "x_label_rotation": 0, "x_labels": [2550, 2551, 2552, 2553, 2554, 2555, 2556, 2557, 2558, 2559], "x_labels_major": null, "x_labels_major_count": null, "x_labels_major_every": null, "x_title": "\u0e1b\u0e35\u0e1e.\u0e28.", "xrange": null, "y_label_rotation": 0, "y_labels": null, "y_labels_major": null, "y_labels_major_count": null, "y_labels_major_every": null, "y_title": "\u0e08\u0e33\u0e19\u0e27\u0e19\u0e19\u0e31\u0e01\u0e17\u0e48\u0e2d\u0e07\u0e40\u0e17\u0e35\u0e48\u0e22\u0e27(\u0e04\u0e19)", "zero": 0, "legends": ["\u0e08\u0e33\u0e19\u0e27\u0e19\u0e19\u0e31\u0e01\u0e17\u0e48\u0e2d\u0e07\u0e40\u0e17\u0e35\u0e48\u0e22\u0e27"]}</script><script type="text/javascript" xlink:href="https://kozea.github.io/pygal.js/2.0.x/pygal-tooltips.min.js"/></defs><title>สถิตินักท่องเที่ยวชาวต่างชาติที่เดินทางเข้าประเทศไทยในปี พ.ศ. 2550 – 2559</title><g class="graph stackedline-graph vertical"><rect class="background" height="600" width="800" x="0" y="0"/><g class="plot" transform="translate(252, 46)"><rect class="background" height="488" width="528.0" x="0" y="0"/><g class="axis y always_show"><path class="line" d="M0.000000 488.000000 h528.000000"/><g class="guides"><path class="guide line" d="M0.000000 430.856874 h528.000000"/><text class="" x="-5" y="434.35687420825514">16000000</text><title>16000000</title></g><g class="guides"><path class="guide line" d="M0.000000 379.860775 h528.000000"/><text class="" x="-5" y="383.3607745082941">18000000</text><title>18000000</title></g><g class="guides"><path class="major guide line" d="M0.000000 328.864675 h528.000000"/><text class="major" x="-5" y="332.3646748083331">20000000</text><title>20000000</title></g><g class="guides"><path class="guide line" d="M0.000000 277.868575 h528.000000"/><text class="" x="-5" y="281.36857510837206">22000000</text><title>22000000</title></g><g class="guides"><path class="guide line" d="M0.000000 226.872475 h528.000000"/><text class="" x="-5" y="230.37247540841105">24000000</text><title>24000000</title></g><g class="guides"><path class="guide line" d="M0.000000 175.876376 h528.000000"/><text class="" x="-5" y="179.37637570845004">26000000</text><title>26000000</title></g><g class="guides"><path class="guide line" d="M0.000000 124.880276 h528.000000"/><text class="" x="-5" y="128.38027600848898">28000000</text><title>28000000</title></g><g class="guides"><path class="major guide line" d="M0.000000 73.884176 h528.000000"/><text class="major" x="-5" y="77.38417630852797">30000000</text><title>30000000</title></g><g class="guides"><path class="guide line" d="M0.000000 22.888077 h528.000000"/><text class="" x="-5" y="26.388076608566905">32000000</text><title>32000000</title></g></g><g class="axis x"><g class="guides"><path class="line" d="M10.153846 0.000000 v488.000000"/><text class="" x="10.153846153846153" y="503.0">2550</text></g><g class="guides"><path class="guide line" d="M66.564103 0.000000 v488.000000"/><text class="" x="66.56410256410255" y="503.0">2551</text></g><g class="guides"><path class="guide line" d="M122.974359 0.000000 v488.000000"/><text class="" x="122.97435897435895" y="503.0">2552</text></g><g class="guides"><path class="guide line" d="M179.384615 0.000000 v488.000000"/><text class="" x="179.3846153846154" y="503.0">2553</text></g><g class="guides"><path class="guide line" d="M235.794872 0.000000 v488.000000"/><text class="" x="235.79487179487177" y="503.0">2554</text></g><g class="guides"><path class="guide line" d="M292.205128 0.000000 v488.000000"/><text class="" x="292.20512820512823" y="503.0">2555</text></g><g class="guides"><path class="guide line" d="M348.615385 0.000000 v488.000000"/><text class="" x="348.6153846153846" y="503.0">2556</text></g><g class="guides"><path class="guide line" d="M405.025641 0.000000 v488.000000"/><text class="" x="405.02564102564105" y="503.0">2557</text></g><g class="guides"><path class="guide line" d="M461.435897 0.000000 v488.000000"/><text class="" x="461.4358974358974" y="503.0">2558</text></g><g class="guides"><path class="guide line" d="M517.846154 0.000000 v488.000000"/><text class="" x="517.8461538461539" y="503.0">2559</text></g></g><g class="series serie-0 color-0"><path class="line reactive" d="M10.153846 488.000000 L10.153846 470.016065 10.379487 469.975911 10.605128 469.935760 10.830769 469.895614 11.056410 469.855476 11.282051 469.815348 11.507692 469.775234 11.733333 469.735137 11.958974 469.695058 12.184615 469.655000 12.410256 469.614967 12.635897 469.574960 12.861538 469.534983 13.087179 469.495038 13.312821 469.455127 13.538462 469.415255 13.764103 469.375422 13.989744 469.335633 14.215385 469.295889 14.441026 469.256193 14.666667 469.216548 14.892308 469.176957 15.117949 469.137422 15.343590 469.097945 15.569231 469.058531 15.794872 469.019181 16.020513 468.979898 16.246154 468.940684 16.471795 468.901543 16.697436 468.862477 16.923077 468.823489 17.148718 468.784581 17.374359 468.745756 17.600000 468.707017 17.825641 468.668367 18.051282 468.629807 18.276923 468.591341 18.502564 468.552972 18.728205 468.514702 18.953846 468.476534 19.179487 468.438470 19.405128 468.400514 19.630769 468.362667 19.856410 468.324933 20.082051 468.287314 20.307692 468.249813 20.533333 468.212433 20.758974 468.175176 20.984615 468.138045 21.210256 468.101042 21.435897 468.064171 21.661538 468.027434 21.887179 467.990834 22.112821 467.954372 22.338462 467.918053 22.564103 467.881879 22.789744 467.845852 23.015385 467.809975 23.241026 467.774251 23.466667 467.738682 23.692308 467.703272 23.917949 467.668022 24.143590 467.632936 24.369231 467.598016 24.594872 467.563264 24.820513 467.528685 25.046154 467.494279 25.271795 467.460050 25.497436 467.426001 25.723077 467.392134 25.948718 467.358452 26.174359 467.324958 26.400000 467.291654 26.625641 467.258543 26.851282 467.225627 27.076923 467.192910 27.302564 467.160394 27.528205 467.128081 27.753846 467.095975 27.979487 467.064078 28.205128 467.032393 28.430769 467.000922 28.656410 466.969668 28.882051 466.938634 29.107692 466.907822 29.333333 466.877235 29.558974 466.846876 29.784615 466.816748 30.010256 466.786853 30.235897 466.757194 30.461538 466.727773 30.687179 466.698593 30.912821 466.669657 31.138462 466.640968 31.364103 466.612528 31.589744 466.584340 31.815385 466.556407 32.041026 466.528730 32.266667 466.501314 32.492308 466.474161 32.717949 466.447272 32.943590 466.420652 33.169231 466.394303 33.394872 466.368226 33.620513 466.342426 33.846154 466.316905 34.071795 466.291665 34.297436 466.266709 34.523077 466.242039 34.748718 466.217659 34.974359 466.193572 35.200000 466.169779 35.425641 466.146283 35.651282 466.123088 35.876923 466.100196 36.102564 466.077609 36.328205 466.055330 36.553846 466.033362 36.779487 466.011708 37.005128 465.990370 37.230769 465.969351 37.456410 465.948653 37.682051 465.928280 37.907692 465.908233 38.133333 465.888517 38.358974 465.869132 38.584615 465.850083 38.810256 465.831371 39.035897 465.813000 39.261538 465.794972 39.487179 465.777289 39.712821 465.759955 39.938462 465.742972 40.164103 465.726342 40.389744 465.710069 40.615385 465.694156 40.841026 465.678604 41.066667 465.663416 41.292308 465.648596 41.517949 465.634145 41.743590 465.620067 41.969231 465.606364 42.194872 465.593039 42.420513 465.580095 42.646154 465.567534 42.871795 465.555358 43.097436 465.543572 43.323077 465.532176 43.548718 465.521175 43.774359 465.510570 44.000000 465.500365 44.225641 465.490561 44.451282 465.481162 44.676923 465.472171 44.902564 465.463589 45.128205 465.455421 45.353846 465.447667 45.579487 465.440332 45.805128 465.433418 46.030769 465.426926 46.256410 465.420862 46.482051 465.415225 46.707692 465.410021 46.933333 465.405250 47.158974 465.400916 47.384615 465.397022 47.610256 465.393570 47.835897 465.390563 48.061538 465.388004 48.287179 465.385894 48.512821 465.384238 48.738462 465.383037 48.964103 465.382295 49.189744 465.382013 49.415385 465.382195 49.641026 465.382843 49.866667 465.383961 50.092308 465.385550 50.317949 465.387613 50.543590 465.390153 50.769231 465.393174 50.994872 465.396676 51.220513 465.400664 51.446154 465.405139 51.671795 465.410105 51.897436 465.415564 52.123077 465.421518 52.348718 465.427972 52.574359 465.434926 52.800000 465.442384 53.025641 465.450349 53.251282 465.458823 53.476923 465.467808 53.702564 465.477309 53.928205 465.487326 54.153846 465.497863 54.379487 465.508923 54.605128 465.520509 54.830769 465.532622 55.056410 465.545266 55.282051 465.558443 55.507692 465.572156 55.733333 465.586408 55.958974 465.601201 56.184615 465.616539 56.410256 465.632422 56.635897 465.648856 56.861538 465.665841 57.087179 465.683381 57.312821 465.701479 57.538462 465.720137 57.764103 465.739357 57.989744 465.759143 58.215385 465.779497 58.441026 465.800422 58.666667 465.821921 58.892308 465.843995 59.117949 465.866649 59.343590 465.889884 59.569231 465.913703 59.794872 465.938110 60.020513 465.963105 60.246154 465.988693 60.471795 466.014877 60.697436 466.041657 60.923077 466.069038 61.148718 466.097022 61.374359 466.125612 61.600000 466.154810 61.825641 466.184619 62.051282 466.215042 62.276923 466.246081 62.502564 466.277739 62.728205 466.310019 62.953846 466.342923 63.179487 466.376455 63.405128 466.410616 63.630769 466.445410 63.856410 466.480839 64.082051 466.516906 64.307692 466.553613 64.533333 466.590963 64.758974 466.628960 64.984615 466.667605 65.210256 466.706901 65.435897 466.746851 65.661538 466.787457 65.887179 466.828723 66.112821 466.870651 66.338462 466.913243 66.564103 466.956503 66.789744 467.000431 67.015385 467.045021 67.241026 467.090265 67.466667 467.136155 67.692308 467.182684 67.917949 467.229842 68.143590 467.277623 68.369231 467.326017 68.594872 467.375018 68.820513 467.424617 69.046154 467.474807 69.271795 467.525579 69.497436 467.576925 69.723077 467.628837 69.948718 467.681308 70.174359 467.734329 70.400000 467.787893 70.625641 467.841991 70.851282 467.896616 71.076923 467.951759 71.302564 468.007412 71.528205 468.063569 71.753846 468.120220 71.979487 468.177357 72.205128 468.234973 72.430769 468.293060 72.656410 468.351610 72.882051 468.410614 73.107692 468.470066 73.333333 468.529956 73.558974 468.590276 73.784615 468.651020 74.010256 468.712179 74.235897 468.773744 74.461538 468.835709 74.687179 468.898064 74.912821 468.960802 75.138462 469.023916 75.364103 469.087396 75.589744 469.151236 75.815385 469.215427 76.041026 469.279961 76.266667 469.344830 76.492308 469.410026 76.717949 469.475541 76.943590 469.541368 77.169231 469.607498 77.394872 469.673923 77.620513 469.740636 77.846154 469.807628 78.071795 469.874892 78.297436 469.942418 78.523077 470.010201 78.748718 470.078231 78.974359 470.146500 79.200000 470.215001 79.425641 470.283725 79.651282 470.352665 79.876923 470.421813 80.102564 470.491160 80.328205 470.560699 80.553846 470.630422 80.779487 470.700320 81.005128 470.770387 81.230769 470.840613 81.456410 470.910990 81.682051 470.981512 81.907692 471.052170 82.133333 471.122955 82.358974 471.193860 82.584615 471.264878 82.810256 471.335999 83.035897 471.407217 83.261538 471.478522 83.487179 471.549907 83.712821 471.621365 83.938462 471.692887 84.164103 471.764465 84.389744 471.836091 84.615385 471.907757 84.841026 471.979455 85.066667 472.051178 85.292308 472.122917 85.517949 472.194665 85.743590 472.266413 85.969231 472.338153 86.194872 472.409877 86.420513 472.481578 86.646154 472.553248 86.871795 472.624878 87.097436 472.696460 87.323077 472.767987 87.548718 472.839451 87.774359 472.910843 88.000000 472.982156 88.225641 473.053382 88.451282 473.124512 88.676923 473.195539 88.902564 473.266455 89.128205 473.337251 89.353846 473.407921 89.579487 473.478455 89.805128 473.548846 90.030769 473.619086 90.256410 473.689167 90.482051 473.759080 90.707692 473.828819 90.933333 473.898375 91.158974 473.967740 91.384615 474.036906 91.610256 474.105865 91.835897 474.174609 92.061538 474.243130 92.287179 474.311420 92.512821 474.379472 92.738462 474.447277 92.964103 474.514827 93.189744 474.582114 93.415385 474.649131 93.641026 474.715869 93.866667 474.782320 94.092308 474.848477 94.317949 474.914331 94.543590 474.979875 94.769231 475.045100 94.994872 475.109999 95.220513 475.174563 95.446154 475.238785 95.671795 475.302656 95.897436 475.366169 96.123077 475.429316 96.348718 475.492088 96.574359 475.554478 96.800000 475.616478 97.025641 475.678079 97.251282 475.739275 97.476923 475.800056 97.702564 475.860415 97.928205 475.920344 98.153846 475.979835 98.379487 476.038879 98.605128 476.097470 98.830769 476.155599 99.056410 476.213258 99.282051 476.270438 99.507692 476.327133 99.733333 476.383334 99.958974 476.439033 100.184615 476.494222 100.410256 476.548894 100.635897 476.603039 100.861538 476.656651 101.087179 476.709721 101.312821 476.762242 101.538462 476.814205 101.764103 476.865602 101.989744 476.916425 102.215385 476.966667 102.441026 477.016320 102.666667 477.065374 102.892308 477.113824 103.117949 477.161660 103.343590 477.208874 103.569231 477.255459 103.794872 477.301407 104.020513 477.346709 104.246154 477.391358 104.471795 477.435345 104.697436 477.478664 104.923077 477.521305 105.148718 477.563261 105.374359 477.604523 105.600000 477.645085 105.825641 477.684937 106.051282 477.724072 106.276923 477.762483 106.502564 477.800160 106.728205 477.837096 106.953846 477.873283 107.179487 477.908713 107.405128 477.943378 107.630769 477.977271 107.856410 478.010382 108.082051 478.042705 108.307692 478.074230 108.533333 478.104951 108.758974 478.134860 108.984615 478.163947 109.210256 478.192206 109.435897 478.219628 109.661538 478.246205 109.887179 478.271930 110.112821 478.296794 110.338462 478.320790 110.564103 478.343909 110.789744 478.366143 111.015385 478.387485 111.241026 478.407927 111.466667 478.427460 111.692308 478.446076 111.917949 478.463769 112.143590 478.480529 112.369231 478.496349 112.594872 478.511220 112.820513 478.525135 113.046154 478.538086 113.271795 478.550065 113.497436 478.561063 113.723077 478.571073 113.948718 478.580088 114.174359 478.588098 114.400000 478.595096 114.625641 478.601074 114.851282 478.606024 115.076923 478.609938 115.302564 478.612808 115.528205 478.614626 115.753846 478.615385 115.979487 478.615075 116.205128 478.613690 116.430769 478.611220 116.656410 478.607659 116.882051 478.602999 117.107692 478.597230 117.333333 478.590346 117.558974 478.582338 117.784615 478.573198 118.010256 478.562919 118.235897 478.551493 118.461538 478.538910 118.687179 478.525164 118.912821 478.510247 119.138462 478.494150 119.364103 478.476866 119.589744 478.458386 119.815385 478.438703 120.041026 478.417809 120.266667 478.395695 120.492308 478.372354 120.717949 478.347778 120.943590 478.321958 121.169231 478.294888 121.394872 478.266558 121.620513 478.236960 121.846154 478.206088 122.071795 478.173933 122.297436 478.140486 122.523077 478.105741 122.748718 478.069688 122.974359 478.032321 123.200000 477.993632 123.425641 477.953622 123.651282 477.912293 123.876923 477.869648 124.102564 477.825687 124.328205 477.780414 124.553846 477.733830 124.779487 477.685938 125.005128 477.636738 125.230769 477.586234 125.456410 477.534428 125.682051 477.481320 125.907692 477.426914 126.133333 477.371212 126.358974 477.314215 126.584615 477.255926 126.810256 477.196346 127.035897 477.135478 127.261538 477.073324 127.487179 477.009885 127.712821 476.945164 127.938462 476.879162 128.164103 476.811883 128.389744 476.743327 128.615385 476.673497 128.841026 476.602395 129.066667 476.530023 129.292308 476.456382 129.517949 476.381476 129.743590 476.305306 129.969231 476.227874 130.194872 476.149181 130.420513 476.069231 130.646154 475.988026 130.871795 475.905566 131.097436 475.821854 131.323077 475.736893 131.548718 475.650684 131.774359 475.563229 132.000000 475.474531 132.225641 475.384591 132.451282 475.293412 132.676923 475.200994 132.902564 475.107342 133.128205 475.012456 133.353846 474.916338 133.579487 474.818991 133.805128 474.720417 134.030769 474.620617 134.256410 474.519594 134.482051 474.417350 134.707692 474.313886 134.933333 474.209205 135.158974 474.103309 135.384615 473.996200 135.610256 473.887880 135.835897 473.778351 136.061538 473.667614 136.287179 473.555673 136.512821 473.442528 136.738462 473.328183 136.964103 473.212639 137.189744 473.095898 137.415385 472.977962 137.641026 472.858833 137.866667 472.738513 138.092308 472.617005 138.317949 472.494310 138.543590 472.370430 138.769231 472.245368 138.994872 472.119125 139.220513 471.991703 139.446154 471.863105 139.671795 471.733332 139.897436 471.602387 140.123077 471.470272 140.348718 471.336988 140.574359 471.202537 140.800000 471.066923 141.025641 470.930146 141.251282 470.792208 141.476923 470.653113 141.702564 470.512861 141.928205 470.371455 142.153846 470.228897 142.379487 470.085189 142.605128 469.940333 142.830769 469.794330 143.056410 469.647184 143.282051 469.498896 143.507692 469.349468 143.733333 469.198901 143.958974 469.047199 144.184615 468.894364 144.410256 468.740396 144.635897 468.585299 144.861538 468.429073 145.087179 468.271722 145.312821 468.113248 145.538462 467.953652 145.764103 467.792936 145.989744 467.631103 146.215385 467.468154 146.441026 467.304091 146.666667 467.138917 146.892308 466.972634 147.117949 466.805243 147.343590 466.636747 147.569231 466.467148 147.794872 466.296447 148.020513 466.124647 148.246154 465.951750 148.471795 465.777758 148.697436 465.602672 148.923077 465.426495 149.148718 465.249229 149.374359 465.070876 149.600000 464.891439 149.825641 464.710918 150.051282 464.529316 150.276923 464.346635 150.502564 464.162877 150.728205 463.978045 150.953846 463.792139 151.179487 463.605163 151.405128 463.417118 151.630769 463.228006 151.856410 463.037830 152.082051 462.846591 152.307692 462.654291 152.533333 462.460933 152.758974 462.266518 152.984615 462.071048 153.210256 461.874526 153.435897 461.676954 153.661538 461.478333 153.887179 461.278666 154.112821 461.077954 154.338462 460.876201 154.564103 460.673406 154.789744 460.469574 155.015385 460.264705 155.241026 460.058802 155.466667 459.851867 155.692308 459.643902 155.917949 459.434909 156.143590 459.224890 156.369231 459.013846 156.594872 458.801781 156.820513 458.588696 157.046154 458.374593 157.271795 458.159473 157.497436 457.943341 157.723077 457.726196 157.948718 457.508041 158.174359 457.288879 158.400000 457.068711 158.625641 456.847539 158.851282 456.625366 159.076923 456.402193 159.302564 456.178022 159.528205 455.952856 159.753846 455.726696 159.979487 455.499545 160.205128 455.271404 160.430769 455.042276 160.656410 454.812163 160.882051 454.581066 161.107692 454.348988 161.333333 454.115931 161.558974 453.881896 161.784615 453.646886 162.010256 453.410903 162.235897 453.173949 162.461538 452.936026 162.687179 452.697135 162.912821 452.457280 163.138462 452.216461 163.364103 451.974682 163.589744 451.731944 163.815385 451.488248 164.041026 451.243598 164.266667 450.997995 164.492308 450.751441 164.717949 450.503939 164.943590 450.255489 165.169231 450.006095 165.394872 449.755758 165.620513 449.504481 165.846154 449.252265 166.071795 448.999112 166.297436 448.745025 166.523077 448.490005 166.748718 448.234055 166.974359 447.977177 167.200000 447.719371 167.425641 447.460642 167.651282 447.200990 167.876923 446.940418 168.102564 446.678928 168.328205 446.416521 168.553846 446.153201 168.779487 445.888968 169.005128 445.623825 169.230769 445.357773 169.456410 445.090816 169.682051 444.822955 169.907692 444.554191 170.133333 444.284528 170.358974 444.013967 170.584615 443.742510 170.810256 443.470159 171.035897 443.196916 171.261538 442.922783 171.487179 442.647762 171.712821 442.371856 171.938462 442.095066 172.164103 441.817395 172.389744 441.538844 172.615385 441.259415 172.841026 440.979110 173.066667 440.697932 173.292308 440.415883 173.517949 440.132964 173.743590 439.849178 173.969231 439.564526 174.194872 439.279011 174.420513 438.992634 174.646154 438.705399 174.871795 438.417306 175.097436 438.128357 175.323077 437.838556 175.548718 437.547903 175.774359 437.256401 176.000000 436.964053 176.225641 436.670859 176.451282 436.376822 176.676923 436.081944 176.902564 435.786227 177.128205 435.489673 177.353846 435.192284 177.579487 434.894062 177.805128 434.595010 178.030769 434.295129 178.256410 433.994421 178.482051 433.692888 178.707692 433.390532 178.933333 433.087356 179.158974 432.783362 179.384615 432.478550 179.610256 432.172925 179.835897 431.866492 180.061538 431.559258 180.287179 431.251231 180.512821 430.942415 180.738462 430.632820 180.964103 430.322451 181.189744 430.011315 181.415385 429.699419 181.641026 429.386769 181.866667 429.073374 182.092308 428.759239 182.317949 428.444371 182.543590 428.128778 182.769231 427.812465 182.994872 427.495440 183.220513 427.177710 183.446154 426.859281 183.671795 426.540160 183.897436 426.220355 184.123077 425.899871 184.348718 425.578716 184.574359 425.256897 184.800000 424.934420 185.025641 424.611292 185.251282 424.287520 185.476923 423.963111 185.702564 423.638072 185.928205 423.312409 186.153846 422.986130 186.379487 422.659240 186.605128 422.331748 186.830769 422.003659 187.056410 421.674981 187.282051 421.345720 187.507692 421.015884 187.733333 420.685478 187.958974 420.354510 188.184615 420.022988 188.410256 419.690916 188.635897 419.358303 188.861538 419.025155 189.087179 418.691479 189.312821 418.357282 189.538462 418.022571 189.764103 417.687352 189.989744 417.351632 190.215385 417.015419 190.441026 416.678718 190.666667 416.341537 190.892308 416.003883 191.117949 415.665762 191.343590 415.327181 191.569231 414.988148 191.794872 414.648668 192.020513 414.308749 192.246154 413.968397 192.471795 413.627620 192.697436 413.286424 192.923077 412.944816 193.148718 412.602802 193.374359 412.260390 193.600000 411.917587 193.825641 411.574399 194.051282 411.230833 194.276923 410.886896 194.502564 410.542595 194.728205 410.197936 194.953846 409.852927 195.179487 409.507574 195.405128 409.161884 195.630769 408.815863 195.856410 408.469520 196.082051 408.122860 196.307692 407.775890 196.533333 407.428617 196.758974 407.081049 196.984615 406.733191 197.210256 406.385051 197.435897 406.036635 197.661538 405.687950 197.887179 405.339004 198.112821 404.989802 198.338462 404.640352 198.564103 404.290661 198.789744 403.940735 199.015385 403.590581 199.241026 403.240206 199.466667 402.889617 199.692308 402.538821 199.917949 402.187824 200.143590 401.836634 200.369231 401.485256 200.594872 401.133699 200.820513 400.781968 201.046154 400.430071 201.271795 400.078015 201.497436 399.725805 201.723077 399.373450 201.948718 399.020956 202.174359 398.668329 202.400000 398.315577 202.625641 397.962706 202.851282 397.609723 203.076923 397.256635 203.302564 396.903450 203.528205 396.550172 203.753846 396.196811 203.979487 395.843371 204.205128 395.489861 204.430769 395.136286 204.656410 394.782655 204.882051 394.428973 205.107692 394.075247 205.333333 393.721485 205.558974 393.367692 205.784615 393.013877 206.010256 392.660045 206.235897 392.306203 206.461538 391.952360 206.687179 391.598520 206.912821 391.244691 207.138462 390.890880 207.364103 390.537093 207.589744 390.183339 207.815385 389.829622 208.041026 389.475950 208.266667 389.122331 208.492308 388.768770 208.717949 388.415275 208.943590 388.061852 209.169231 387.708508 209.394872 387.355250 209.620513 387.002085 209.846154 386.649020 210.071795 386.296062 210.297436 385.943216 210.523077 385.590491 210.748718 385.237893 210.974359 384.885428 211.200000 384.533105 211.425641 384.180928 211.651282 383.828906 211.876923 383.477045 212.102564 383.125352 212.328205 382.773834 212.553846 382.422497 212.779487 382.071349 213.005128 381.720395 213.230769 381.369644 213.456410 381.019102 213.682051 380.668775 213.907692 380.318671 214.133333 379.968796 214.358974 379.619157 214.584615 379.269761 214.810256 378.920615 215.035897 378.571726 215.261538 378.223100 215.487179 377.874744 215.712821 377.526665 215.938462 377.178871 216.164103 376.831367 216.389744 376.484160 216.615385 376.137258 216.841026 375.790667 217.066667 375.444394 217.292308 375.098446 217.517949 374.752829 217.743590 374.407551 217.969231 374.062618 218.194872 373.718038 218.420513 373.373816 218.646154 373.029960 218.871795 372.686477 219.097436 372.343373 219.323077 372.000655 219.548718 371.658331 219.774359 371.316406 220.000000 370.974888 220.225641 370.633784 220.451282 370.293099 220.676923 369.952843 220.902564 369.613020 221.128205 369.273637 221.353846 368.934703 221.579487 368.596223 221.805128 368.258204 222.030769 367.920653 222.256410 367.583578 222.482051 367.246984 222.707692 366.910878 222.933333 366.575268 223.158974 366.240160 223.384615 365.905562 223.610256 365.571479 223.835897 365.237918 224.061538 364.904888 224.287179 364.572393 224.512821 364.240442 224.738462 363.909041 224.964103 363.578197 225.189744 363.247916 225.415385 362.918205 225.641026 362.589072 225.866667 362.260523 226.092308 361.932565 226.317949 361.605205 226.543590 361.278449 226.769231 360.952305 226.994872 360.626779 227.220513 360.301878 227.446154 359.977608 227.671795 359.653978 227.897436 359.330993 228.123077 359.008660 228.348718 358.686986 228.574359 358.365978 228.800000 358.045643 229.025641 357.725988 229.251282 357.407019 229.476923 357.088744 229.702564 356.771168 229.928205 356.454300 230.153846 356.138145 230.379487 355.822710 230.605128 355.508003 230.830769 355.194031 231.056410 354.880799 231.282051 354.568315 231.507692 354.256586 231.733333 353.945618 231.958974 353.635418 232.184615 353.325994 232.410256 353.017352 232.635897 352.709498 232.861538 352.402440 233.087179 352.096184 233.312821 351.790738 233.538462 351.486108 233.764103 351.182300 233.989744 350.879322 234.215385 350.577181 234.441026 350.275883 234.666667 349.975436 234.892308 349.675845 235.117949 349.377118 235.343590 349.079262 235.569231 348.782284 235.794872 348.486189 236.020513 348.190983 236.246154 347.896654 236.471795 347.603191 236.697436 347.310581 236.923077 347.018810 237.148718 346.727865 237.374359 346.437734 237.600000 346.148405 237.825641 345.859863 238.051282 345.572096 238.276923 345.285092 238.502564 344.998836 238.728205 344.713317 238.953846 344.428522 239.179487 344.144437 239.405128 343.861050 239.630769 343.578348 239.856410 343.296318 240.082051 343.014947 240.307692 342.734221 240.533333 342.454130 240.758974 342.174658 240.984615 341.895794 241.210256 341.617525 241.435897 341.339837 241.661538 341.062718 241.887179 340.786155 242.112821 340.510135 242.338462 340.234644 242.564103 339.959672 242.789744 339.685203 243.015385 339.411226 243.241026 339.137728 243.466667 338.864695 243.692308 338.592114 243.917949 338.319974 244.143590 338.048261 244.369231 337.776961 244.594872 337.506063 244.820513 337.235553 245.046154 336.965419 245.271795 336.695647 245.497436 336.426225 245.723077 336.157139 245.948718 335.888377 246.174359 335.619926 246.400000 335.351773 246.625641 335.083905 246.851282 334.816310 247.076923 334.548974 247.302564 334.281884 247.528205 334.015028 247.753846 333.748392 247.979487 333.481964 248.205128 333.215731 248.430769 332.949680 248.656410 332.683799 248.882051 332.418073 249.107692 332.152491 249.333333 331.887039 249.558974 331.621704 249.784615 331.356475 250.010256 331.091337 250.235897 330.826277 250.461538 330.561284 250.687179 330.296344 250.912821 330.031444 251.138462 329.766571 251.364103 329.501713 251.589744 329.236856 251.815385 328.971987 252.041026 328.707095 252.266667 328.442165 252.492308 328.177185 252.717949 327.912142 252.943590 327.647023 253.169231 327.381815 253.394872 327.116506 253.620513 326.851082 253.846154 326.585531 254.071795 326.319839 254.297436 326.053994 254.523077 325.787983 254.748718 325.521793 254.974359 325.255411 255.200000 324.988824 255.425641 324.722020 255.651282 324.454985 255.876923 324.187706 256.102564 323.920171 256.328205 323.652367 256.553846 323.384281 256.779487 323.115899 257.005128 322.847210 257.230769 322.578199 257.456410 322.308855 257.682051 322.039164 257.907692 321.769114 258.133333 321.498691 258.358974 321.227883 258.584615 320.956677 258.810256 320.685060 259.035897 320.413019 259.261538 320.140540 259.487179 319.867612 259.712821 319.594222 259.938462 319.320355 260.164103 319.046001 260.389744 318.771144 260.615385 318.495774 260.841026 318.219877 261.066667 317.943439 261.292308 317.666449 261.517949 317.388892 261.743590 317.110757 261.969231 316.832031 262.194872 316.552699 262.420513 316.272751 262.646154 315.992172 262.871795 315.710950 263.097436 315.429072 263.323077 315.146525 263.548718 314.863296 263.774359 314.579372 264.000000 314.294741 264.225641 314.009389 264.451282 313.723303 264.676923 313.436472 264.902564 313.148881 265.128205 312.860518 265.353846 312.571370 265.579487 312.281424 265.805128 311.990667 266.030769 311.699087 266.256410 311.406670 266.482051 311.113403 266.707692 310.819274 266.933333 310.524270 267.158974 310.228378 267.384615 309.931584 267.610256 309.633877 267.835897 309.335243 268.061538 309.035669 268.287179 308.735142 268.512821 308.433650 268.738462 308.131180 268.964103 307.827718 269.189744 307.523252 269.415385 307.217769 269.641026 306.911256 269.866667 306.603700 270.092308 306.295088 270.317949 305.985408 270.543590 305.674646 270.769231 305.362790 270.994872 305.049826 271.220513 304.735742 271.446154 304.420525 271.671795 304.104162 271.897436 303.786640 272.123077 303.467946 272.348718 303.148067 272.574359 302.826991 272.800000 302.504704 273.025641 302.181194 273.251282 301.856448 273.476923 301.530453 273.702564 301.203195 273.928205 300.874662 274.153846 300.544842 274.379487 300.213721 274.605128 299.881286 274.830769 299.547525 275.056410 299.212424 275.282051 298.875971 275.507692 298.538153 275.733333 298.198957 275.958974 297.858369 276.184615 297.516378 276.410256 297.172970 276.635897 296.828132 276.861538 296.481852 277.087179 296.134116 277.312821 295.784912 277.538462 295.434227 277.764103 295.082047 277.989744 294.728361 278.215385 294.373154 278.441026 294.016415 278.666667 293.658130 278.892308 293.298286 279.117949 292.936871 279.343590 292.573872 279.569231 292.209275 279.794872 291.843068 280.020513 291.475238 280.246154 291.105772 280.471795 290.734657 280.697436 290.361880 280.923077 289.987429 281.148718 289.611290 281.374359 289.233450 281.600000 288.853898 281.825641 288.472619 282.051282 288.089601 282.276923 287.704831 282.502564 287.318296 282.728205 286.929983 282.953846 286.539880 283.179487 286.147973 283.405128 285.754249 283.630769 285.358697 283.856410 284.961301 284.082051 284.562051 284.307692 284.160933 284.533333 283.757934 284.758974 283.353041 284.984615 282.946241 285.210256 282.537521 285.435897 282.126869 285.661538 281.714272 285.887179 281.299716 286.112821 280.883189 286.338462 280.464678 286.564103 280.044170 286.789744 279.621653 287.015385 279.197112 287.241026 278.770536 287.466667 278.341911 287.692308 277.911225 287.917949 277.478464 288.143590 277.043616 288.369231 276.606668 288.594872 276.167607 288.820513 275.726420 289.046154 275.283094 289.271795 274.837617 289.497436 274.389975 289.723077 273.940155 289.948718 273.488146 290.174359 273.033932 290.400000 272.577503 290.625641 272.118845 290.851282 271.657944 291.076923 271.194789 291.302564 270.729366 291.528205 270.261662 291.753846 269.791665 291.979487 269.319362 292.205128 268.844739 292.430769 268.367791 292.656410 267.888544 292.882051 267.407030 293.107692 266.923282 293.333333 266.437331 293.558974 265.949212 293.784615 265.458956 294.010256 264.966596 294.235897 264.472165 294.461538 263.975695 294.687179 263.477219 294.912821 262.976769 295.138462 262.474378 295.364103 261.970080 295.589744 261.463905 295.815385 260.955888 296.041026 260.446060 296.266667 259.934454 296.492308 259.421103 296.717949 258.906039 296.943590 258.389295 297.169231 257.870904 297.394872 257.350898 297.620513 256.829309 297.846154 256.306172 298.071795 255.781517 298.297436 255.255378 298.523077 254.727787 298.748718 254.198777 298.974359 253.668380 299.200000 253.136629 299.425641 252.603557 299.651282 252.069197 299.876923 251.533580 300.102564 250.996740 300.328205 250.458709 300.553846 249.919519 300.779487 249.379204 301.005128 248.837796 301.230769 248.295327 301.456410 247.751831 301.682051 247.207339 301.907692 246.661885 302.133333 246.115501 302.358974 245.568219 302.584615 245.020072 302.810256 244.471094 303.035897 243.921315 303.261538 243.370770 303.487179 242.819490 303.712821 242.267509 303.938462 241.714858 304.164103 241.161571 304.389744 240.607680 304.615385 240.053218 304.841026 239.498217 305.066667 238.942709 305.292308 238.386729 305.517949 237.830307 305.743590 237.273477 305.969231 236.716272 306.194872 236.158723 306.420513 235.600864 306.646154 235.042728 306.871795 234.484346 307.097436 233.925751 307.323077 233.366976 307.548718 232.808054 307.774359 232.249017 308.000000 231.689898 308.225641 231.130729 308.451282 230.571544 308.676923 230.012374 308.902564 229.453252 309.128205 228.894211 309.353846 228.335284 309.579487 227.776503 309.805128 227.217900 310.030769 226.659509 310.256410 226.101361 310.482051 225.543491 310.707692 224.985929 310.933333 224.428709 311.158974 223.871863 311.384615 223.315424 311.610256 222.759425 311.835897 222.203898 312.061538 221.648876 312.287179 221.094391 312.512821 220.540476 312.738462 219.987164 312.964103 219.434487 313.189744 218.882478 313.415385 218.331169 313.641026 217.780594 313.866667 217.230783 314.092308 216.681772 314.317949 216.133591 314.543590 215.586273 314.769231 215.039852 314.994872 214.494359 315.220513 213.949828 315.446154 213.406291 315.671795 212.863780 315.897436 212.322328 316.123077 211.781968 316.348718 211.242732 316.574359 210.704654 316.800000 210.167765 317.025641 209.632098 317.251282 209.097685 317.476923 208.564561 317.702564 208.032756 317.928205 207.502304 318.153846 206.973237 318.379487 206.445588 318.605128 205.919389 318.830769 205.394674 319.056410 204.871474 319.282051 204.349822 319.507692 203.829751 319.733333 203.311294 319.958974 202.794483 320.184615 202.279350 320.410256 201.765929 320.635897 201.254252 320.861538 200.744351 321.087179 200.236260 321.312821 199.730010 321.538462 199.225634 321.764103 198.723166 321.989744 198.222637 322.215385 197.724080 322.441026 197.227529 322.666667 196.733014 322.892308 196.240570 323.117949 195.750228 323.343590 195.262021 323.569231 194.775982 323.794872 194.292144 324.020513 193.810539 324.246154 193.331199 324.471795 192.854158 324.697436 192.379447 324.923077 191.907101 325.148718 191.437150 325.374359 190.969628 325.600000 190.504567 325.825641 190.042000 326.051282 189.581960 326.276923 189.124479 326.502564 188.669589 326.728205 188.217324 326.953846 187.767716 327.179487 187.320798 327.405128 186.876601 327.630769 186.435160 327.856410 185.996506 328.082051 185.560672 328.307692 185.127691 328.533333 184.697595 328.758974 184.270416 328.984615 183.846188 329.210256 183.424944 329.435897 183.006715 329.661538 182.591534 329.887179 182.179434 330.112821 181.770448 330.338462 181.364607 330.564103 180.961946 330.789744 180.562496 331.015385 180.166290 331.241026 179.773360 331.466667 179.383739 331.692308 178.997461 331.917949 178.614556 332.143590 178.235059 332.369231 177.859001 332.594872 177.486415 332.820513 177.117335 333.046154 176.751791 333.271795 176.389818 333.497436 176.031447 333.723077 175.676712 333.948718 175.325644 334.174359 174.978277 334.400000 174.634643 334.625641 174.294775 334.851282 173.958705 335.076923 173.626466 335.302564 173.298090 335.528205 172.973611 335.753846 172.653060 335.979487 172.336471 336.205128 172.023875 336.430769 171.715306 336.656410 171.410797 336.882051 171.110379 337.107692 170.814085 337.333333 170.521949 337.558974 170.234002 337.784615 169.950277 338.010256 169.670807 338.235897 169.395625 338.461538 169.124762 338.687179 168.858252 338.912821 168.596128 339.138462 168.338421 339.364103 168.085165 339.589744 167.836392 339.815385 167.592135 340.041026 167.352426 340.266667 167.117298 340.492308 166.886783 340.717949 166.660914 340.943590 166.439725 341.169231 166.223246 341.394872 166.011512 341.620513 165.804554 341.846154 165.602405 342.071795 165.405098 342.297436 165.212666 342.523077 165.025140 342.748718 164.842555 342.974359 164.664941 343.200000 164.492332 343.425641 164.324761 343.651282 164.162259 343.876923 164.004861 344.102564 163.852597 344.328205 163.705502 344.553846 163.563607 344.779487 163.426945 345.005128 163.295549 345.230769 163.169451 345.456410 163.048684 345.682051 162.933280 345.907692 162.823273 346.133333 162.718695 346.358974 162.619577 346.584615 162.525954 346.810256 162.437858 347.035897 162.355320 347.261538 162.278374 347.487179 162.207053 347.712821 162.141389 347.938462 162.081414 348.164103 162.027162 348.389744 161.978664 348.615385 161.935954 348.841026 161.899051 349.066667 161.867918 349.292308 161.842508 349.517949 161.822770 349.743590 161.808657 349.969231 161.800118 350.194872 161.797106 350.420513 161.799570 350.646154 161.807463 350.871795 161.820734 351.097436 161.839335 351.323077 161.863218 351.548718 161.892332 351.774359 161.926629 352.000000 161.966060 352.225641 162.010576 352.451282 162.060128 352.676923 162.114666 352.902564 162.174143 353.128205 162.238508 353.353846 162.307713 353.579487 162.381709 353.805128 162.460447 354.030769 162.543878 354.256410 162.631952 354.482051 162.724621 354.707692 162.821836 354.933333 162.923548 355.158974 163.029707 355.384615 163.140265 355.610256 163.255173 355.835897 163.374382 356.061538 163.497842 356.287179 163.625505 356.512821 163.757321 356.738462 163.893242 356.964103 164.033219 357.189744 164.177203 357.415385 164.325144 357.641026 164.476994 357.866667 164.632703 358.092308 164.792223 358.317949 164.955504 358.543590 165.122498 358.769231 165.293156 358.994872 165.467428 359.220513 165.645266 359.446154 165.826620 359.671795 166.011442 359.897436 166.199682 360.123077 166.391291 360.348718 166.586221 360.574359 166.784423 360.800000 166.985847 361.025641 167.190444 361.251282 167.398166 361.476923 167.608964 361.702564 167.822787 361.928205 168.039588 362.153846 168.259318 362.379487 168.481927 362.605128 168.707366 362.830769 168.935586 363.056410 169.166539 363.282051 169.400175 363.507692 169.636446 363.733333 169.875302 363.958974 170.116694 364.184615 170.360573 364.410256 170.606891 364.635897 170.855598 364.861538 171.106645 365.087179 171.359983 365.312821 171.615563 365.538462 171.873337 365.764103 172.133255 365.989744 172.395268 366.215385 172.659327 366.441026 172.925384 366.666667 173.193388 366.892308 173.463292 367.117949 173.735046 367.343590 174.008601 367.569231 174.283908 367.794872 174.560918 368.020513 174.839582 368.246154 175.119851 368.471795 175.401677 368.697436 175.685009 368.923077 175.969800 369.148718 176.255999 369.374359 176.543558 369.600000 176.832429 369.825641 177.122561 370.051282 177.413906 370.276923 177.706416 370.502564 178.000040 370.728205 178.294730 370.953846 178.590437 371.179487 178.887112 371.405128 179.184706 371.630769 179.483170 371.856410 179.782455 372.082051 180.082511 372.307692 180.383291 372.533333 180.684744 372.758974 180.986822 372.984615 181.289476 373.210256 181.592657 373.435897 181.896315 373.661538 182.200403 373.887179 182.504870 374.112821 182.809668 374.338462 183.114747 374.564103 183.420060 374.789744 183.725556 375.015385 184.031187 375.241026 184.336903 375.466667 184.642656 375.692308 184.948397 375.917949 185.254077 376.143590 185.559646 376.369231 185.865056 376.594872 186.170257 376.820513 186.475201 377.046154 186.779839 377.271795 187.084121 377.497436 187.387999 377.723077 187.691424 377.948718 187.994346 378.174359 188.296716 378.400000 188.598487 378.625641 188.899607 378.851282 189.200029 379.076923 189.499704 379.302564 189.798582 379.528205 190.096615 379.753846 190.393753 379.979487 190.689948 380.205128 190.985150 380.430769 191.279310 380.656410 191.572380 380.882051 191.864311 381.107692 192.155053 381.333333 192.444557 381.558974 192.732774 381.784615 193.019656 382.010256 193.305153 382.235897 193.589217 382.461538 193.871798 382.687179 194.152847 382.912821 194.432316 383.138462 194.710155 383.364103 194.986315 383.589744 195.260747 383.815385 195.533403 384.041026 195.804233 384.266667 196.073188 384.492308 196.340219 384.717949 196.605278 384.943590 196.868315 385.169231 197.129281 385.394872 197.388127 385.620513 197.644805 385.846154 197.899264 386.071795 198.151457 386.297436 198.401334 386.523077 198.648846 386.748718 198.893944 386.974359 199.136579 387.200000 199.376702 387.425641 199.614264 387.651282 199.849217 387.876923 200.081510 388.102564 200.311096 388.328205 200.537924 388.553846 200.761947 388.779487 200.983115 389.005128 201.201378 389.230769 201.416689 389.456410 201.628997 389.682051 201.838255 389.907692 202.044412 390.133333 202.247421 390.358974 202.447231 390.584615 202.643794 390.810256 202.837061 391.035897 203.026983 391.261538 203.213511 391.487179 203.396596 391.712821 203.576189 391.938462 203.752240 392.164103 203.924702 392.389744 204.093524 392.615385 204.258658 392.841026 204.420054 393.066667 204.577665 393.292308 204.731440 393.517949 204.881331 393.743590 205.027289 393.969231 205.169265 394.194872 205.307209 394.420513 205.441073 394.646154 205.570808 394.871795 205.696364 395.097436 205.817694 395.323077 205.934746 395.548718 206.047474 395.774359 206.155827 396.000000 206.259757 396.225641 206.359214 396.451282 206.454150 396.676923 206.544516 396.902564 206.630262 397.128205 206.711340 397.353846 206.787700 397.579487 206.859294 397.805128 206.926073 398.030769 206.987986 398.256410 207.044987 398.482051 207.097025 398.707692 207.144052 398.933333 207.186018 399.158974 207.222874 399.384615 207.254572 399.610256 207.281062 399.835897 207.302296 400.061538 207.318225 400.287179 207.328798 400.512821 207.333968 400.738462 207.333686 400.964103 207.327902 401.189744 207.316567 401.415385 207.299633 401.641026 207.277050 401.866667 207.248769 402.092308 207.214741 402.317949 207.174918 402.543590 207.129251 402.769231 207.077689 402.994872 207.020185 403.220513 206.956689 403.446154 206.887152 403.671795 206.811526 403.897436 206.729761 404.123077 206.641808 404.348718 206.547618 404.574359 206.447142 404.800000 206.340332 405.025641 206.227138 405.251282 206.107525 405.476923 205.981518 405.702564 205.849155 405.928205 205.710474 406.153846 205.565513 406.379487 205.414311 406.605128 205.256906 406.830769 205.093336 407.056410 204.923640 407.282051 204.747855 407.507692 204.566021 407.733333 204.378175 407.958974 204.184356 408.184615 203.984602 408.410256 203.778951 408.635897 203.567443 408.861538 203.350114 409.087179 203.127003 409.312821 202.898149 409.538462 202.663590 409.764103 202.423364 409.989744 202.177509 410.215385 201.926065 410.441026 201.669068 410.666667 201.406558 410.892308 201.138572 411.117949 200.865150 411.343590 200.586328 411.569231 200.302147 411.794872 200.012643 412.020513 199.717855 412.246154 199.417822 412.471795 199.112582 412.697436 198.802173 412.923077 198.486633 413.148718 198.166001 413.374359 197.840315 413.600000 197.509613 413.825641 197.173934 414.051282 196.833316 414.276923 196.487797 414.502564 196.137415 414.728205 195.782209 414.953846 195.422218 415.179487 195.057479 415.405128 194.688030 415.630769 194.313911 415.856410 193.935158 416.082051 193.551812 416.307692 193.163909 416.533333 192.771489 416.758974 192.374589 416.984615 191.973248 417.210256 191.567504 417.435897 191.157395 417.661538 190.742960 417.887179 190.324238 418.112821 189.901265 418.338462 189.474081 418.564103 189.042724 418.789744 188.607233 419.015385 188.167645 419.241026 187.723998 419.466667 187.276332 419.692308 186.824684 419.917949 186.369093 420.143590 185.909597 420.369231 185.446235 420.594872 184.979044 420.820513 184.508063 421.046154 184.033330 421.271795 183.554884 421.497436 183.072762 421.723077 182.587004 421.948718 182.097647 422.174359 181.604730 422.400000 181.108291 422.625641 180.608368 422.851282 180.105000 423.076923 179.598225 423.302564 179.088081 423.528205 178.574607 423.753846 178.057840 423.979487 177.537820 424.205128 177.014584 424.430769 176.488171 424.656410 175.958619 424.882051 175.425966 425.107692 174.890251 425.333333 174.351512 425.558974 173.809787 425.784615 173.265115 426.010256 172.717534 426.235897 172.167081 426.461538 171.613797 426.687179 171.057718 426.912821 170.498883 427.138462 169.937330 427.364103 169.373098 427.589744 168.806225 427.815385 168.236750 428.041026 167.664710 428.266667 167.090144 428.492308 166.513090 428.717949 165.933586 428.943590 165.351671 429.169231 164.767384 429.394872 164.180761 429.620513 163.591843 429.846154 163.000666 430.071795 162.407270 430.297436 161.811692 430.523077 161.213971 430.748718 160.614145 430.974359 160.012253 431.200000 159.408333 431.425641 158.802422 431.651282 158.194561 431.876923 157.584785 432.102564 156.973135 432.328205 156.359648 432.553846 155.744363 432.779487 155.127317 433.005128 154.508550 433.230769 153.888099 433.456410 153.266003 433.682051 152.642300 433.907692 152.017029 434.133333 151.390227 434.358974 150.761934 434.584615 150.132186 434.810256 149.501023 435.035897 148.868483 435.261538 148.234605 435.487179 147.599425 435.712821 146.962984 435.938462 146.325319 436.164103 145.686468 436.389744 145.046470 436.615385 144.405363 436.841026 143.763185 437.066667 143.119974 437.292308 142.475770 437.517949 141.830610 437.743590 141.184533 437.969231 140.537576 438.194872 139.889778 438.420513 139.241178 438.646154 138.591814 438.871795 137.941723 439.097436 137.290945 439.323077 136.639518 439.548718 135.987479 439.774359 135.334868 440.000000 134.681722 440.225641 134.028080 440.451282 133.373980 440.676923 132.719461 440.902564 132.064560 441.128205 131.409316 441.353846 130.753768 441.579487 130.097954 441.805128 129.441911 442.030769 128.785678 442.256410 128.129294 442.482051 127.472797 442.707692 126.816226 442.933333 126.159617 443.158974 125.503010 443.384615 124.846444 443.610256 124.189955 443.835897 123.533584 444.061538 122.877367 444.287179 122.221343 444.512821 121.565551 444.738462 120.910029 444.964103 120.254815 445.189744 119.599948 445.415385 118.945465 445.641026 118.291406 445.866667 117.637807 446.092308 116.984709 446.317949 116.332148 446.543590 115.680164 446.769231 115.028794 446.994872 114.378077 447.220513 113.728051 447.446154 113.078755 447.671795 112.430226 447.897436 111.782504 448.123077 111.135626 448.348718 110.489630 448.574359 109.844556 448.800000 109.200440 449.025641 108.557323 449.251282 107.915241 449.476923 107.274233 449.702564 106.634338 449.928205 105.995594 450.153846 105.358039 450.379487 104.721711 450.605128 104.086649 450.830769 103.452891 451.056410 102.820475 451.282051 102.189439 451.507692 101.559823 451.733333 100.931664 451.958974 100.305000 452.184615 99.679870 452.410256 99.056312 452.635897 98.434365 452.861538 97.814066 453.087179 97.195454 453.312821 96.578568 453.538462 95.963445 453.764103 95.350124 453.989744 94.738643 454.215385 94.129041 454.441026 93.521355 454.666667 92.915625 454.892308 92.311888 455.117949 91.710182 455.343590 91.110547 455.569231 90.513020 455.794872 89.917640 456.020513 89.324444 456.246154 88.733472 456.471795 88.144761 456.697436 87.558350 456.923077 86.974278 457.148718 86.392581 457.374359 85.813300 457.600000 85.236471 457.825641 84.662134 458.051282 84.090326 458.276923 83.521086 458.502564 82.954452 458.728205 82.390463 458.953846 81.829157 459.179487 81.270572 459.405128 80.714746 459.630769 80.161718 459.856410 79.611526 460.082051 79.064209 460.307692 78.519804 460.533333 77.978350 460.758974 77.439885 460.984615 76.904448 461.210256 76.372076 461.435897 75.842809 461.661538 75.316676 461.887179 74.793672 462.112821 74.273786 462.338462 73.757005 462.564103 73.243315 462.789744 72.732706 463.015385 72.225163 463.241026 71.720675 463.466667 71.219228 463.692308 70.720811 463.917949 70.225411 464.143590 69.733015 464.369231 69.243610 464.594872 68.757185 464.820513 68.273726 465.046154 67.793220 465.271795 67.315656 465.497436 66.841021 465.723077 66.369302 465.948718 65.900487 466.174359 65.434563 466.400000 64.971517 466.625641 64.511337 466.851282 64.054011 467.076923 63.599525 467.302564 63.147867 467.528205 62.699025 467.753846 62.252986 467.979487 61.809738 468.205128 61.369267 468.430769 60.931562 468.656410 60.496610 468.882051 60.064397 469.107692 59.634913 469.333333 59.208143 469.558974 58.784076 469.784615 58.362699 470.010256 57.944000 470.235897 57.527965 470.461538 57.114582 470.687179 56.703839 470.912821 56.295723 471.138462 55.890221 471.364103 55.487322 471.589744 55.087011 471.815385 54.689278 472.041026 54.294109 472.266667 53.901491 472.492308 53.511413 472.717949 53.123861 472.943590 52.738823 473.169231 52.356287 473.394872 51.976239 473.620513 51.598667 473.846154 51.223559 474.071795 50.850903 474.297436 50.480684 474.523077 50.112892 474.748718 49.747513 474.974359 49.384535 475.200000 49.023945 475.425641 48.665731 475.651282 48.309880 475.876923 47.956380 476.102564 47.605217 476.328205 47.256380 476.553846 46.909856 476.779487 46.565632 477.005128 46.223696 477.230769 45.884035 477.456410 45.546636 477.682051 45.211487 477.907692 44.878576 478.133333 44.547890 478.358974 44.219416 478.584615 43.893141 478.810256 43.569054 479.035897 43.247141 479.261538 42.927391 479.487179 42.609789 479.712821 42.294325 479.938462 41.980985 480.164103 41.669756 480.389744 41.360627 480.615385 41.053584 480.841026 40.748616 481.066667 40.445708 481.292308 40.144850 481.517949 39.846028 481.743590 39.549230 481.969231 39.254442 482.194872 38.961654 482.420513 38.670851 482.646154 38.382022 482.871795 38.095154 483.097436 37.810234 483.323077 37.527250 483.548718 37.246189 483.774359 36.967038 484.000000 36.689786 484.225641 36.414419 484.451282 36.140925 484.676923 35.869291 484.902564 35.599505 485.128205 35.331555 485.353846 35.065426 485.579487 34.801108 485.805128 34.538588 486.030769 34.277852 486.256410 34.018888 486.482051 33.761685 486.707692 33.506228 486.933333 33.252507 487.158974 33.000507 487.384615 32.750216 487.610256 32.501623 487.835897 32.254714 488.061538 32.009477 488.287179 31.765899 488.512821 31.523967 488.738462 31.283670 488.964103 31.044994 489.189744 30.807927 489.415385 30.572457 489.641026 30.338570 489.866667 30.106254 490.092308 29.875498 490.317949 29.646287 490.543590 29.418609 490.769231 29.192453 490.994872 28.967805 491.220513 28.744653 491.446154 28.522984 491.671795 28.302786 491.897436 28.084045 492.123077 27.866751 492.348718 27.650889 492.574359 27.436448 492.800000 27.223414 493.025641 27.011776 493.251282 26.801520 493.476923 26.592634 493.702564 26.385106 493.928205 26.178923 494.153846 25.974073 494.379487 25.770542 494.605128 25.568318 494.830769 25.367389 495.056410 25.167743 495.282051 24.969365 495.507692 24.772245 495.733333 24.576369 495.958974 24.381725 496.184615 24.188301 496.410256 23.996082 496.635897 23.805059 496.861538 23.615216 497.087179 23.426543 497.312821 23.239026 497.538462 23.052653 497.764103 22.867411 497.989744 22.683288 498.215385 22.500271 498.441026 22.318347 498.666667 22.137505 498.892308 21.957731 499.117949 21.779013 499.343590 21.601338 499.569231 21.424694 499.794872 21.249068 500.020513 21.074447 500.246154 20.900820 500.471795 20.728173 500.697436 20.556494 500.923077 20.385770 501.148718 20.215989 501.374359 20.047138 501.600000 19.879205 501.825641 19.712176 502.051282 19.546041 502.276923 19.380785 502.502564 19.216396 502.728205 19.052862 502.953846 18.890170 503.179487 18.728308 503.405128 18.567263 503.630769 18.407022 503.856410 18.247574 504.082051 18.088904 504.307692 17.931002 504.533333 17.773853 504.758974 17.617446 504.984615 17.461769 505.210256 17.306807 505.435897 17.152550 505.661538 16.998984 505.887179 16.846096 506.112821 16.693875 506.338462 16.542308 506.564103 16.391381 506.789744 16.241083 507.015385 16.091401 507.241026 15.942323 507.466667 15.793835 507.692308 15.645925 507.917949 15.498581 508.143590 15.351790 508.369231 15.205539 508.594872 15.059817 508.820513 14.914610 509.046154 14.769905 509.271795 14.625691 509.497436 14.481954 509.723077 14.338683 509.948718 14.195864 510.174359 14.053485 510.400000 13.911533 510.625641 13.769997 510.851282 13.628862 511.076923 13.488117 511.302564 13.347749 511.528205 13.207746 511.753846 13.068094 511.979487 12.928782 512.205128 12.789797 512.430769 12.651126 512.656410 12.512757 512.882051 12.374677 513.107692 12.236873 513.333333 12.099334 513.558974 11.962045 513.784615 11.824996 514.010256 11.688173 514.235897 11.551563 514.461538 11.415155 514.687179 11.278935 514.912821 11.142891 515.138462 11.007011 515.364103 10.871281 515.589744 10.735690 515.815385 10.600224 516.041026 10.464871 516.266667 10.329619 516.492308 10.194455 516.717949 10.059367 516.943590 9.924341 517.169231 9.789366 517.394872 9.654428 517.620513 9.519515 517.846154 9.384615 517.846154 488.000000"/></g></g><g class="titles"><text class="title plot_title" x="400.0" y="26">สถิตินักท่องเที่ยวชาวต่างชาติที่เดินทางเข้าประเทศไทยในปี พ.ศ. 2550 – 2559</text><text class="title" x="516.0" y="580">ปีพ.ศ.</text><text class="title" x="148.0" y="316.0" transform="rotate(-90 148.000000 290.000000)">จำนวนนักท่องเที่ยว(คน)</text></g><g class="plot overlay" transform="translate(252, 46)"><g class="series serie-0 color-0"><g class="dots"><circle class="dot reactive tooltip-trigger" cx="10.153846153846153" cy="470.0160652224594" r="2.5"/><desc class="value">14464228</desc><desc class="x top">10.153846153846153</desc><desc class="y top">470.0160652224594</desc><desc class="x_label">2550</desc></g><g class="dots"><circle class="dot reactive tooltip-trigger" cx="66.56410256410255" cy="466.95650322486057" r="2.5"/><desc class="value">14584220</desc><desc class="x top">66.56410256410255</desc><desc class="y top">466.95650322486057</desc><desc class="x_label">2551</desc></g><g class="dots"><circle class="dot reactive tooltip-trigger" cx="122.97435897435895" cy="478.03232062064524" r="2.5"/><desc class="value">14149841</desc><desc class="x top">122.97435897435895</desc><desc class="y top">478.03232062064524</desc><desc class="x_label">2552</desc></g><g class="dots"><circle class="dot reactive tooltip-trigger" cx="179.3846153846154" cy="432.47855017871393" r="2.5"/><desc class="value">15936400</desc><desc class="x top">179.3846153846154</desc><desc class="y top">432.47855017871393</desc><desc class="x_label">2553</desc></g><g class="dots"><circle class="dot reactive tooltip-trigger" cx="235.79487179487177" cy="348.4861891093886" r="2.5"/><desc class="value">19230470</desc><desc class="x top">235.79487179487177</desc><desc class="y top">348.4861891093886</desc><desc class="x_label">2554</desc></g><g class="dots"><circle class="dot reactive tooltip-trigger" cx="292.20512820512823" cy="268.8447387723144" r="2.5"/><desc class="value">22353903</desc><desc class="x left top">292.20512820512823</desc><desc class="y left top">268.8447387723144</desc><desc class="x_label">2555</desc></g><g class="dots"><circle class="dot reactive tooltip-trigger" cx="348.6153846153846" cy="161.93595440421944" r="2.5"/><desc class="value">26546725</desc><desc class="x left">348.6153846153846</desc><desc class="y left">161.93595440421944</desc><desc class="x_label">2556</desc></g><g class="dots"><circle class="dot reactive tooltip-trigger" cx="405.02564102564105" cy="206.2271379117293" r="2.5"/><desc class="value">24809683</desc><desc class="x left">405.02564102564105</desc><desc class="y left">206.2271379117293</desc><desc class="x_label">2557</desc></g><g class="dots"><circle class="dot reactive tooltip-trigger" cx="461.4358974358974" cy="75.84280900775423" r="2.5"/><desc class="value">29923185</desc><desc class="x left">461.4358974358974</desc><desc class="y left">75.84280900775423</desc><desc class="x_label">2558</desc></g><g class="dots"><circle class="dot reactive tooltip-trigger" cx="517.8461538461539" cy="9.384615384615472" r="2.5"/><desc class="value">32529588</desc><desc class="x left">517.8461538461539</desc><desc class="y left">9.384615384615472</desc><desc class="x_label">2559</desc></g></g></g><g class="plot text-overlay" transform="translate(252, 46)"><g class="series serie-0 color-0"/></g><g class="plot tooltip-overlay" transform="translate(252, 46)"><g class="tooltip" style="opacity: 0" transform="translate(0 0)"><rect class="tooltip-box" height="0" rx="0" ry="0" width="0"/><g class="text"/></g></g><g class="legends" transform="translate(10, 56)"><g class="legend reactive activate-serie" id="activate-serie-0"><rect class="color-0 reactive" height="12" width="12" x="0.0" y="1.0"/><text x="17.0" y="11.2">จำนวนนักท่องเท…</text><title>จำนวนนักท่องเที่ยว</title></g></g><g class="legends" transform="translate(790, 56)"/></g></svg>